<svg xmlns="http://www.w3.org/2000/svg" xmlns:xlink="http://www.w3.org/1999/xlink" contentStyleType="text/css" data-diagram-type="DESCRIPTION" height="626px" preserveAspectRatio="none" style="width:450px;height:626px;background:#FFFFFF;" version="1.1" viewBox="0 0 450 626" width="450px" zoomAndPan="magnify"><defs/><g><!--cluster Frontend--><g class="cluster" data-entity="Frontend" data-source-line="1" data-uid="ent0002" id="cluster_Frontend"><path d="M40.5,6 L113.7285,6 A3.75,3.75 0 0 1 116.2285,8.5 L123.2285,28.2969 L203.5,28.2969 A2.5,2.5 0 0 1 206,30.7969 L206,100.79 A2.5,2.5 0 0 1 203.5,103.29 L40.5,103.29 A2.5,2.5 0 0 1 38,100.79 L38,8.5 A2.5,2.5 0 0 1 40.5,6" fill="none" style="stroke:#000000;stroke-width:1.5;"/><line style="stroke:#000000;stroke-width:1.5;" x1="38" x2="123.2285" y1="28.2969" y2="28.2969"/><text fill="#000000" font-family="sans-serif" font-size="14" font-weight="bold" lengthAdjust="spacing" textLength="72.2285" x="42" y="20.9951">Frontend</text></g><!--cluster Backend--><g class="cluster" data-entity="Backend" data-source-line="4" data-uid="ent0004" id="cluster_Backend"><path d="M8.5,152.29 L76.7109,152.29 A3.75,3.75 0 0 1 79.2109,154.79 L86.2109,174.5869 L303.5,174.5869 A2.5,2.5 0 0 1 306,177.0869 L306,616.98 A2.5,2.5 0 0 1 303.5,619.48 L8.5,619.48 A2.5,2.5 0 0 1 6,616.98 L6,154.79 A2.5,2.5 0 0 1 8.5,152.29" fill="none" style="stroke:#000000;stroke-width:1.5;"/><line style="stroke:#000000;stroke-width:1.5;" x1="6" x2="86.2109" y1="174.5869" y2="174.5869"/><text fill="#000000" font-family="sans-serif" font-size="14" font-weight="bold" lengthAdjust="spacing" textLength="67.2109" x="10" y="167.2851">Backend</text></g><!--entity FE--><g class="entity" data-entity="FE" data-source-line="2" data-uid="ent0003" id="entity_FE"><rect fill="#F1F1F1" height="46.2969" rx="2.5" ry="2.5" style="stroke:#181818;stroke-width:0.5;" width="136.0313" x="53.98" y="41"/><rect fill="#F1F1F1" height="10" style="stroke:#181818;stroke-width:0.5;" width="15" x="170.0113" y="46"/><rect fill="#F1F1F1" height="2" style="stroke:#181818;stroke-width:0.5;" width="4" x="168.0113" y="48"/><rect fill="#F1F1F1" height="2" style="stroke:#181818;stroke-width:0.5;" width="4" x="168.0113" y="52"/><text fill="#000000" font-family="sans-serif" font-size="14" lengthAdjust="spacing" textLength="96.0313" x="68.98" y="73.9951">Streamlit App</text></g><!--entity API--><g class="entity" data-entity="API" data-source-line="5" data-uid="ent0005" id="entity_API"><rect fill="#F1F1F1" height="46.2969" rx="2.5" ry="2.5" style="stroke:#181818;stroke-width:0.5;" width="91.5635" x="46.22" y="187.29"/><rect fill="#F1F1F1" height="10" style="stroke:#181818;stroke-width:0.5;" width="15" x="117.7835" y="192.29"/><rect fill="#F1F1F1" height="2" style="stroke:#181818;stroke-width:0.5;" width="4" x="115.7835" y="194.29"/><rect fill="#F1F1F1" height="2" style="stroke:#181818;stroke-width:0.5;" width="4" x="115.7835" y="198.29"/><text fill="#000000" font-family="sans-serif" font-size="14" lengthAdjust="spacing" textLength="51.5635" x="61.22" y="220.2851">FastAPI</text></g><!--entity AI--><g class="entity" data-entity="AI" data-source-line="6" data-uid="ent0006" id="entity_AI"><rect fill="#F1F1F1" height="46.2969" rx="2.5" ry="2.5" style="stroke:#181818;stroke-width:0.5;" width="90.8662" x="199.57" y="310.59"/><rect fill="#F1F1F1" height="10" style="stroke:#181818;stroke-width:0.5;" width="15" x="270.4362" y="315.59"/><rect fill="#F1F1F1" height="2" style="stroke:#181818;stroke-width:0.5;" width="4" x="268.4362" y="317.59"/><rect fill="#F1F1F1" height="2" style="stroke:#181818;stroke-width:0.5;" width="4" x="268.4362" y="321.59"/><text fill="#000000" font-family="sans-serif" font-size="14" lengthAdjust="spacing" textLength="50.8662" x="214.57" y="343.5851">AI Core</text></g><!--entity DE--><g class="entity" data-entity="DE" data-source-line="7" data-uid="ent0007" id="entity_DE"><rect fill="#F1F1F1" height="46.2969" rx="2.5" ry="2.5" style="stroke:#181818;stroke-width:0.5;" width="164.9609" x="52.52" y="433.89"/><rect fill="#F1F1F1" height="10" style="stroke:#181818;stroke-width:0.5;" width="15" x="197.4809" y="438.89"/><rect fill="#F1F1F1" height="2" style="stroke:#181818;stroke-width:0.5;" width="4" x="195.4809" y="440.89"/><rect fill="#F1F1F1" height="2" style="stroke:#181818;stroke-width:0.5;" width="4" x="195.4809" y="444.89"/><text fill="#000000" font-family="sans-serif" font-size="14" lengthAdjust="spacing" textLength="124.9609" x="67.52" y="466.8851">Document Engine</text></g><!--entity T--><g class="entity" data-entity="T" data-source-line="8" data-uid="ent0008" id="entity_T"><rect fill="#F1F1F1" height="46.2969" rx="2.5" ry="2.5" style="stroke:#181818;stroke-width:0.5;" width="141.083" x="64.46" y="557.18"/><rect fill="#F1F1F1" height="10" style="stroke:#181818;stroke-width:0.5;" width="15" x="185.543" y="562.18"/><rect fill="#F1F1F1" height="2" style="stroke:#181818;stroke-width:0.5;" width="4" x="183.543" y="564.18"/><rect fill="#F1F1F1" height="2" style="stroke:#181818;stroke-width:0.5;" width="4" x="183.543" y="568.18"/><text fill="#000000" font-family="sans-serif" font-size="14" lengthAdjust="spacing" textLength="101.083" x="79.46" y="590.1751">template.docx</text></g><!--entity OA--><g class="entity" data-entity="OA" data-source-line="10" data-uid="ent0009" id="entity_OA"><path d="M322.15,444.39 C322.15,434.39 370.9986,434.39 370.9986,434.39 C370.9986,434.39 419.8473,434.39 419.8473,444.39 L419.8473,469.6869 C419.8473,479.6869 370.9986,479.6869 370.9986,479.6869 C370.9986,479.6869 322.15,479.6869 322.15,469.6869 L322.15,444.39" fill="#F1F1F1" style="stroke:#181818;stroke-width:0.5;"/><path d="M322.15,444.39 C322.15,454.39 370.9986,454.39 370.9986,454.39 C370.9986,454.39 419.8473,454.39 419.8473,444.39" fill="none" style="stroke:#181818;stroke-width:0.5;"/><text fill="#000000" font-family="sans-serif" font-size="14" lengthAdjust="spacing" textLength="77.6973" x="332.15" y="471.3851">OpenAI API</text></g><!--link FE to API--><g class="link" data-entity-1="FE" data-entity-2="API" data-source-line="12" data-uid="lnk10" id="link_FE_API"><path d="M83.89,87.73 C73.18,96.17 62.86,106.79 57,119.29 C46.46,141.79 56.3193,163.5228 69.4593,181.9728" fill="none" id="FE-to-API" style="stroke:#181818;stroke-width:1;"/><polygon fill="#181818" points="72.94,186.86,70.9772,177.2087,70.0394,182.7873,64.4609,181.8496,72.94,186.86" style="stroke:#181818;stroke-width:1;"/><text fill="#000000" font-family="sans-serif" font-size="13" lengthAdjust="spacing" textLength="147.9893" x="58" y="132.3569">POST /generate (JSON)</text></g><!--link API to FE--><g class="link" data-entity-1="API" data-entity-2="FE" data-source-line="18" data-uid="lnk16" id="link_API_FE"><path d="M138.24,193.75 C164.34,182.25 194.7,163.78 210,136.29 C221.13,116.29 209.1737,102.6398 187.0937,90.5598" fill="none" id="API-to-FE" style="stroke:#181818;stroke-width:1;"/><polygon fill="#181818" points="181.83,87.68,187.8057,95.5088,186.2164,90.0798,191.6454,88.4905,181.83,87.68" style="stroke:#181818;stroke-width:1;"/><text fill="#000000" font-family="sans-serif" font-size="13" lengthAdjust="spacing" textLength="75.4419" x="214" y="132.3569">return docx</text></g><!--link API to AI--><g class="link" data-entity-1="API" data-entity-2="AI" data-source-line="13" data-uid="lnk11" id="link_API_AI"><path d="M120.42,233.97 C147.81,255.69 184.3378,284.6532 211.7678,306.3932" fill="none" id="API-to-AI" style="stroke:#181818;stroke-width:1;"/><polygon fill="#181818" points="216.47,310.12,211.9012,301.395,212.5515,307.0143,206.9321,307.6646,216.47,310.12" style="stroke:#181818;stroke-width:1;"/><text fill="#000000" font-family="sans-serif" font-size="13" lengthAdjust="spacing" textLength="154.2607" x="178" y="276.6569">validate &amp; build prompt</text></g><!--link AI to OA--><g class="link" data-entity-1="AI" data-entity-2="OA" data-source-line="14" data-uid="lnk12" id="link_AI_OA"><path d="M271.24,357.16 C281.61,366.22 293.52,376.88 304,386.89 C320.08,402.24 333.4057,415.9522 346.4757,429.7622" fill="none" id="AI-to-OA" style="stroke:#181818;stroke-width:1;"/><polygon fill="#181818" points="350.6,434.12,347.3188,424.8338,347.1631,430.4885,341.5084,430.3328,350.6,434.12" style="stroke:#181818;stroke-width:1;"/><text fill="#000000" font-family="sans-serif" font-size="13" lengthAdjust="spacing" textLength="121.6782" x="321" y="399.9569">request / response</text></g><!--link AI to DE--><g class="link" data-entity-1="AI" data-entity-2="DE" data-source-line="15" data-uid="lnk13" id="link_AI_DE"><path d="M224.57,357.27 C204.81,379.06 179.0712,407.4359 159.3512,429.1759" fill="none" id="AI-to-DE" style="stroke:#181818;stroke-width:1;"/><polygon fill="#181818" points="155.32,433.62,164.3294,429.6413,158.6793,429.9166,158.404,424.2664,155.32,433.62" style="stroke:#181818;stroke-width:1;"/><text fill="#000000" font-family="sans-serif" font-size="13" lengthAdjust="spacing" textLength="98.5981" x="197" y="399.9569">markdown text</text></g><!--link DE to T--><g class="link" data-entity-1="DE" data-entity-2="T" data-source-line="16" data-uid="lnk14" id="link_DE_T"><path d="M135,480.57 C135,502.35 135,529.18 135,550.92" fill="none" id="DE-to-T" style="stroke:#181818;stroke-width:1;"/><polygon fill="#181818" points="135,556.92,139,547.92,135,551.92,131,547.92,135,556.92" style="stroke:#181818;stroke-width:1;"/><text fill="#000000" font-family="sans-serif" font-size="13" lengthAdjust="spacing" textLength="121.0054" x="136" y="523.2469">use template.docx</text></g><!--link DE to API--><g class="link" data-entity-1="DE" data-entity-2="API" data-source-line="17" data-uid="lnk15" id="link_DE_API"><path d="M116.24,433.74 C101.52,414.7 82.2,385.86 74,356.89 C62.01,314.53 72.6119,268.7115 81.9319,239.7515" fill="none" id="DE-to-API" style="stroke:#181818;stroke-width:1;"/><polygon fill="#181818" points="83.77,234.04,77.2052,241.3819,82.2383,238.7996,84.8205,243.8327,83.77,234.04" style="stroke:#181818;stroke-width:1;"/><text fill="#000000" font-family="sans-serif" font-size="13" lengthAdjust="spacing" textLength="106.4565" x="75" y="338.3069">generated .docx</text></g><!--SRC=[LO_1IiGm48RlUOgX1z73kdSFGhGfh0UxqDx4m-ncA6NR92PJNH3VtKb34KyP_kzZva_0ymK7Wgg9tZ4vMy6t0dZhE1BEqyYWGtW7JD0OzQF2fZ_9y6Stc5WV3widRuxq0Pvzf1AjIUtFoqoEmRXXT8NK9XEcEKp8T6_z-RhclTooo7Z29CVQG4xsoUOgmrOhrHZOxHvp10zmRBiUzWCvYh85Rb-wzlLEPROwMVd4QRGPti1f6ISB8VeviDB5QRKuaJuMIWnxcLBmBj66QoDundYn_ii1qvLLNGhq0XRf-EyB6opjjbuM2jnwDMQzoKjqaC4l]--></g></svg>