<svg xmlns="http://www.w3.org/2000/svg" xmlns:xlink="http://www.w3.org/1999/xlink" contentStyleType="text/css" data-diagram-type="SEQUENCE" height="557px" preserveAspectRatio="none" style="width:865px;height:557px;background:#FFFFFF;" version="1.1" viewBox="0 0 865 557" width="865px" zoomAndPan="magnify"><defs/><g><g><title>User</title><rect fill="#000000" fill-opacity="0.00000" height="395.5938" width="8" x="19.9551" y="81.2969"/><line style="stroke:#181818;stroke-width:0.5;stroke-dasharray:5,5;" x1="23" x2="23" y1="81.2969" y2="476.8906"/></g><g><title>Streamlit</title><rect fill="#000000" fill-opacity="0.00000" height="395.5938" width="8" x="133.9395" y="81.2969"/><line style="stroke:#181818;stroke-width:0.5;stroke-dasharray:5,5;" x1="137.8242" x2="137.8242" y1="81.2969" y2="476.8906"/></g><g><title>FastAPI</title><rect fill="#000000" fill-opacity="0.00000" height="395.5938" width="8" x="259.6099" y="81.2969"/><line style="stroke:#181818;stroke-width:0.5;stroke-dasharray:5,5;" x1="262.8281" x2="262.8281" y1="81.2969" y2="476.8906"/></g><g><title>AI Core</title><rect fill="#000000" fill-opacity="0.00000" height="395.5938" width="8" x="397.5923" y="81.2969"/><line style="stroke:#181818;stroke-width:0.5;stroke-dasharray:5,5;" x1="401.1592" x2="401.1592" y1="81.2969" y2="476.8906"/></g><g><title>OpenAI</title><rect fill="#000000" fill-opacity="0.00000" height="395.5938" width="8" x="563.7798" y="81.2969"/><line style="stroke:#181818;stroke-width:0.5;stroke-dasharray:5,5;" x1="567.2305" x2="567.2305" y1="81.2969" y2="476.8906"/></g><g><title>DocEngine</title><rect fill="#000000" fill-opacity="0.00000" height="395.5938" width="8" x="650.8413" y="81.2969"/><line style="stroke:#181818;stroke-width:0.5;stroke-dasharray:5,5;" x1="654.3291" x2="654.3291" y1="81.2969" y2="476.8906"/></g><g><title>template.docx</title><rect fill="#000000" fill-opacity="0.00000" height="395.5938" width="8" x="797.9644" y="81.2969"/><line style="stroke:#181818;stroke-width:0.5;stroke-dasharray:5,5;" x1="801.4229" x2="801.4229" y1="81.2969" y2="476.8906"/></g><g class="participant participant-head" data-participant="User"><text fill="#000000" font-family="sans-serif" font-size="14" lengthAdjust="spacing" textLength="31.9102" x="5" y="77.9951">User</text><ellipse cx="23.9551" cy="13.5" fill="#E2E2F0" rx="8" ry="8" style="stroke:#181818;stroke-width:0.5;"/><path d="M23.9551,21.5 L23.9551,48.5 M10.9551,29.5 L36.9551,29.5 M23.9551,48.5 L10.9551,63.5 M23.9551,48.5 L36.9551,63.5" fill="none" style="stroke:#181818;stroke-width:0.5;"/></g><g class="participant participant-tail" data-participant="User"><text fill="#000000" font-family="sans-serif" font-size="14" lengthAdjust="spacing" textLength="31.9102" x="5" y="488.8857">User</text><ellipse cx="23.9551" cy="500.6875" fill="#E2E2F0" rx="8" ry="8" style="stroke:#181818;stroke-width:0.5;"/><path d="M23.9551,508.6875 L23.9551,535.6875 M10.9551,516.6875 L36.9551,516.6875 M23.9551,535.6875 L10.9551,550.6875 M23.9551,535.6875 L36.9551,550.6875" fill="none" style="stroke:#181818;stroke-width:0.5;"/></g><g class="participant participant-head" data-participant="FE"><rect fill="#E2E2F0" height="30.2969" rx="2.5" ry="2.5" style="stroke:#181818;stroke-width:0.5;" width="78.2305" x="98.8242" y="50"/><text fill="#000000" font-family="sans-serif" font-size="14" lengthAdjust="spacing" textLength="64.2305" x="105.8242" y="69.9951">Streamlit</text></g><g class="participant participant-tail" data-participant="FE"><rect fill="#E2E2F0" height="30.2969" rx="2.5" ry="2.5" style="stroke:#181818;stroke-width:0.5;" width="78.2305" x="98.8242" y="475.8906"/><text fill="#000000" font-family="sans-serif" font-size="14" lengthAdjust="spacing" textLength="64.2305" x="105.8242" y="495.8857">Streamlit</text></g><g class="participant participant-head" data-participant="API"><rect fill="#E2E2F0" height="30.2969" rx="2.5" ry="2.5" style="stroke:#181818;stroke-width:0.5;" width="65.5635" x="230.8281" y="50"/><text fill="#000000" font-family="sans-serif" font-size="14" lengthAdjust="spacing" textLength="51.5635" x="237.8281" y="69.9951">FastAPI</text></g><g class="participant participant-tail" data-participant="API"><rect fill="#E2E2F0" height="30.2969" rx="2.5" ry="2.5" style="stroke:#181818;stroke-width:0.5;" width="65.5635" x="230.8281" y="475.8906"/><text fill="#000000" font-family="sans-serif" font-size="14" lengthAdjust="spacing" textLength="51.5635" x="237.8281" y="495.8857">FastAPI</text></g><g class="participant participant-head" data-participant="AI"><rect fill="#E2E2F0" height="30.2969" rx="2.5" ry="2.5" style="stroke:#181818;stroke-width:0.5;" width="64.8662" x="369.1592" y="50"/><text fill="#000000" font-family="sans-serif" font-size="14" lengthAdjust="spacing" textLength="50.8662" x="376.1592" y="69.9951">AI Core</text></g><g class="participant participant-tail" data-participant="AI"><rect fill="#E2E2F0" height="30.2969" rx="2.5" ry="2.5" style="stroke:#181818;stroke-width:0.5;" width="64.8662" x="369.1592" y="475.8906"/><text fill="#000000" font-family="sans-serif" font-size="14" lengthAdjust="spacing" textLength="50.8662" x="376.1592" y="495.8857">AI Core</text></g><g class="participant participant-head" data-participant="OA"><rect fill="#E2E2F0" height="30.2969" rx="2.5" ry="2.5" style="stroke:#181818;stroke-width:0.5;" width="65.0986" x="535.2305" y="50"/><text fill="#000000" font-family="sans-serif" font-size="14" lengthAdjust="spacing" textLength="51.0986" x="542.2305" y="69.9951">OpenAI</text></g><g class="participant participant-tail" data-participant="OA"><rect fill="#E2E2F0" height="30.2969" rx="2.5" ry="2.5" style="stroke:#181818;stroke-width:0.5;" width="65.0986" x="535.2305" y="475.8906"/><text fill="#000000" font-family="sans-serif" font-size="14" lengthAdjust="spacing" textLength="51.0986" x="542.2305" y="495.8857">OpenAI</text></g><g class="participant participant-head" data-participant="DE"><rect fill="#E2E2F0" height="30.2969" rx="2.5" ry="2.5" style="stroke:#181818;stroke-width:0.5;" width="89.0244" x="610.3291" y="50"/><text fill="#000000" font-family="sans-serif" font-size="14" lengthAdjust="spacing" textLength="75.0244" x="617.3291" y="69.9951">DocEngine</text></g><g class="participant participant-tail" data-participant="DE"><rect fill="#E2E2F0" height="30.2969" rx="2.5" ry="2.5" style="stroke:#181818;stroke-width:0.5;" width="89.0244" x="610.3291" y="475.8906"/><text fill="#000000" font-family="sans-serif" font-size="14" lengthAdjust="spacing" textLength="75.0244" x="617.3291" y="495.8857">DocEngine</text></g><g class="participant participant-head" data-participant="T"><rect fill="#E2E2F0" height="30.2969" rx="2.5" ry="2.5" style="stroke:#181818;stroke-width:0.5;" width="115.083" x="744.4229" y="50"/><text fill="#000000" font-family="sans-serif" font-size="14" lengthAdjust="spacing" textLength="101.083" x="751.4229" y="69.9951">template.docx</text></g><g class="participant participant-tail" data-participant="T"><rect fill="#E2E2F0" height="30.2969" rx="2.5" ry="2.5" style="stroke:#181818;stroke-width:0.5;" width="115.083" x="744.4229" y="475.8906"/><text fill="#000000" font-family="sans-serif" font-size="14" lengthAdjust="spacing" textLength="101.083" x="751.4229" y="495.8857">template.docx</text></g><g class="message" data-participant-1="User" data-participant-2="FE"><polygon fill="#181818" points="125.9395,108.4297,135.9395,112.4297,125.9395,116.4297,129.9395,112.4297" style="stroke:#181818;stroke-width:1;"/><line style="stroke:#181818;stroke-width:1;" x1="23.9551" x2="131.9395" y1="112.4297" y2="112.4297"/><text fill="#000000" font-family="sans-serif" font-size="13" lengthAdjust="spacing" textLength="79.3076" x="30.9551" y="107.3638">submit form</text></g><g class="message" data-participant-1="FE" data-participant-2="API"><polygon fill="#181818" points="251.6099,137.5625,261.6099,141.5625,251.6099,145.5625,255.6099,141.5625" style="stroke:#181818;stroke-width:1;"/><line style="stroke:#181818;stroke-width:1;" x1="137.9395" x2="257.6099" y1="141.5625" y2="141.5625"/><text fill="#000000" font-family="sans-serif" font-size="13" lengthAdjust="spacing" textLength="101.6704" x="144.9395" y="136.4966">POST /generate</text></g><g class="message" data-participant-1="API" data-participant-2="API"><line style="stroke:#181818;stroke-width:1;" x1="263.6099" x2="305.6099" y1="170.6953" y2="170.6953"/><line style="stroke:#181818;stroke-width:1;" x1="305.6099" x2="305.6099" y1="170.6953" y2="183.6953"/><line style="stroke:#181818;stroke-width:1;" x1="264.6099" x2="305.6099" y1="183.6953" y2="183.6953"/><polygon fill="#181818" points="274.6099,179.6953,264.6099,183.6953,274.6099,187.6953,270.6099,183.6953" style="stroke:#181818;stroke-width:1;"/><text fill="#000000" font-family="sans-serif" font-size="13" lengthAdjust="spacing" textLength="123.9824" x="270.6099" y="165.6294">Pydantic validation</text></g><g class="message" data-participant-1="API" data-participant-2="AI"><polygon fill="#181818" points="389.5923,208.8281,399.5923,212.8281,389.5923,216.8281,393.5923,212.8281" style="stroke:#181818;stroke-width:1;"/><line style="stroke:#181818;stroke-width:1;" x1="263.6099" x2="395.5923" y1="212.8281" y2="212.8281"/><text fill="#000000" font-family="sans-serif" font-size="13" lengthAdjust="spacing" textLength="83.6621" x="270.6099" y="207.7622">build prompt</text></g><g class="message" data-participant-1="AI" data-participant-2="OA"><polygon fill="#181818" points="555.7798,237.9609,565.7798,241.9609,555.7798,245.9609,559.7798,241.9609" style="stroke:#181818;stroke-width:1;"/><line style="stroke:#181818;stroke-width:1;" x1="401.5923" x2="561.7798" y1="241.9609" y2="241.9609"/><text fill="#000000" font-family="sans-serif" font-size="13" lengthAdjust="spacing" textLength="85.0967" x="408.5923" y="236.895">send request</text></g><g class="message" data-participant-1="OA" data-participant-2="AI"><polygon fill="#181818" points="412.5923,267.0938,402.5923,271.0938,412.5923,275.0938,408.5923,271.0938" style="stroke:#181818;stroke-width:1;"/><line style="stroke:#181818;stroke-width:1;stroke-dasharray:2,2;" x1="406.5923" x2="566.7798" y1="271.0938" y2="271.0938"/><text fill="#000000" font-family="sans-serif" font-size="13" lengthAdjust="spacing" textLength="142.1875" x="418.5923" y="266.0278">response (markdown)</text></g><g class="message" data-participant-1="AI" data-participant-2="DE"><polygon fill="#181818" points="642.8413,296.2266,652.8413,300.2266,642.8413,304.2266,646.8413,300.2266" style="stroke:#181818;stroke-width:1;"/><line style="stroke:#181818;stroke-width:1;" x1="401.5923" x2="648.8413" y1="300.2266" y2="300.2266"/><text fill="#000000" font-family="sans-serif" font-size="13" lengthAdjust="spacing" textLength="102.4766" x="408.5923" y="295.1606">pass markdown</text></g><g class="message" data-participant-1="DE" data-participant-2="T"><polygon fill="#181818" points="789.9644,325.3594,799.9644,329.3594,789.9644,333.3594,793.9644,329.3594" style="stroke:#181818;stroke-width:1;"/><line style="stroke:#181818;stroke-width:1;" x1="654.8413" x2="795.9644" y1="329.3594" y2="329.3594"/><text fill="#000000" font-family="sans-serif" font-size="13" lengthAdjust="spacing" textLength="95.2593" x="661.8413" y="324.2935">open template</text></g><g class="message" data-participant-1="DE" data-participant-2="DE"><line style="stroke:#181818;stroke-width:1;" x1="654.8413" x2="696.8413" y1="358.4922" y2="358.4922"/><line style="stroke:#181818;stroke-width:1;" x1="696.8413" x2="696.8413" y1="358.4922" y2="371.4922"/><line style="stroke:#181818;stroke-width:1;" x1="655.8413" x2="696.8413" y1="371.4922" y2="371.4922"/><polygon fill="#181818" points="665.8413,367.4922,655.8413,371.4922,665.8413,375.4922,661.8413,371.4922" style="stroke:#181818;stroke-width:1;"/><text fill="#000000" font-family="sans-serif" font-size="13" lengthAdjust="spacing" textLength="133.123" x="661.8413" y="353.4263">fill template -&gt; docx</text></g><g class="message" data-participant-1="DE" data-participant-2="API"><polygon fill="#181818" points="274.6099,396.625,264.6099,400.625,274.6099,404.625,270.6099,400.625" style="stroke:#181818;stroke-width:1;"/><line style="stroke:#181818;stroke-width:1;stroke-dasharray:2,2;" x1="268.6099" x2="653.8413" y1="400.625" y2="400.625"/><text fill="#000000" font-family="sans-serif" font-size="13" lengthAdjust="spacing" textLength="81.1357" x="280.6099" y="395.5591">docx (bytes)</text></g><g class="message" data-participant-1="API" data-participant-2="FE"><polygon fill="#181818" points="148.9395,425.7578,138.9395,429.7578,148.9395,433.7578,144.9395,429.7578" style="stroke:#181818;stroke-width:1;"/><line style="stroke:#181818;stroke-width:1;stroke-dasharray:2,2;" x1="142.9395" x2="262.6099" y1="429.7578" y2="429.7578"/><text fill="#000000" font-family="sans-serif" font-size="13" lengthAdjust="spacing" textLength="83.2622" x="154.9395" y="424.6919">file response</text></g><g class="message" data-participant-1="FE" data-participant-2="User"><polygon fill="#181818" points="34.9551,454.8906,24.9551,458.8906,34.9551,462.8906,30.9551,458.8906" style="stroke:#181818;stroke-width:1;"/><line style="stroke:#181818;stroke-width:1;" x1="28.9551" x2="136.9395" y1="458.8906" y2="458.8906"/><text fill="#000000" font-family="sans-serif" font-size="13" lengthAdjust="spacing" textLength="89.9844" x="40.9551" y="453.8247">download link</text></g><!--SRC=[NP3BRi8m44Nt_efHLh2Wx5bKiXgGiWeIwGTCuW5P-5NRAUNlQviaLRgATCxS-CxW4As7pq2UEVHH3jAXYN29db0h6G43d8uhTy8G-Rd99drMgk8DV5XFLP7_NEl8yAQebgzLROUZkKdp2jRhzwf8sYcCz2Riy5CcEiPoPTYzft9mW33sEdMzMgzP0WddWWSujvSEzZSov5EUPVZddYBzNGxmZKeAZDAQPI3xVfHAWFDMkyXuuItFRv4HuEbhf11P8hivu2auQmB1HgE_2_imsobNvuuEGu3PiBgqx1AtwImmhpZn4hXAfHQHQLw_32mxP0AR_XafR5_bvukaC2sDffkKa-NGmoYB0fGqzry0]--></g></svg>